<svg xmlns="http://www.w3.org/2000/svg" width="697.333" height="508" version="1.0" viewBox="0 0 523 381"><path d="M154.5 78.8c-30.3 17.4-66.8 38.4-81.2 46.7-19.9 11.4-25.9 15.3-25 16.1 1 1 21.1 12.7 83.9 48.9l13.7 7.9.3 40.7c.3 46.5-.4 42.7 9.8 47.9 27.6 13.9 110.5 18.9 164 9.9 22.2-3.7 36.9-8.7 42.5-14.3l2.5-2.5v-41.9c0-37.1.2-42.1 1.6-43.3.9-.7 7.3-4.6 14.2-8.6l12.7-7.3.3 30.1.2 30-4.4 4.3c-5.3 5.2-6.6 10.3-4.2 16 1.5 3.6 1.4 4-3.4 17.8-2.8 7.8-5 14.8-5 15.7 0 4.1 16.3 10.6 24.8 9.9 6.2-.6 18.5-6.4 19-9.1.2-1-1.9-8.2-4.7-16-4.9-13.9-5-14.4-3.6-18.4 2-5.9.9-10.8-3.5-15.4-2-2.2-4.4-3.9-5.4-3.9-1.5 0-1.6-2.8-1.4-33.1l.3-33.1L430 158c15.1-8.7 27.6-16.3 27.8-16.8.2-.6-9.3-6.5-21-13.2-11.7-6.8-47.8-27.5-80.2-46.2-32.4-18.7-59.5-34.2-60.2-34.5-1.2-.4-1.4 3.3-1.4 20.9v21.4l44.5 25.4c41.1 23.6 44.4 25.6 42.7 27-1.1.8-21.1 12.5-44.5 26l-42.6 24.5-.1 21.2c0 11.7.3 21.3.8 21.3.4 0 11.5-6.3 24.7-13.9l24-13.9.3 27.1c.2 26.9.2 27-2 29.5-13.6 14.5-88 21-139.3 12-15.1-2.6-27.5-6.9-32-11.3l-3.5-3.2v-24.8c0-23.1.1-24.7 1.8-24 .9.3 10.3 5.5 20.8 11.6 10.4 6 19.3 10.9 19.7 10.9.4 0 .6-9.6.5-21.2l-.3-21.3-44.2-25.5c-24.4-14-44.3-25.7-44.3-26 0-.3 20-12 44.5-26L211 89.5V68.2c0-11.6-.3-21.2-.7-21.2-.5 0-25.6 14.3-55.8 31.8z"/><path d="M281.6 58c-2.7 5.8-17.9 38.6-33.7 72.9L219 193.3v19.8c0 11 .4 19.9.8 19.9s10.4-20.8 22.2-46.3c11.8-25.4 26.7-57.6 33.2-71.6L287 89.7l-.2-21.1-.3-21.1-4.9 10.5z"/></svg>